<svg width="48" height="48" viewBox="0 0 48 48" fill="none" xmlns="http://www.w3.org/2000/svg">
<circle cx="24" cy="24" r="24" fill="#F76871"/>
<path d="M23.104 36.136V33.644C21.6853 33.532 20.4907 33.2053 19.52 32.664C18.5493 32.104 17.7093 31.4133 17 30.592L19.268 28.52C19.8093 29.1547 20.416 29.6773 21.088 30.088C21.76 30.48 22.516 30.732 23.356 30.844V25.16C21.3027 24.7307 19.8187 24.0773 18.904 23.2C18.008 22.304 17.56 21.1653 17.56 19.784C17.56 18.2907 18.0453 17.096 19.016 16.2C19.9867 15.2853 21.3493 14.7253 23.104 14.52V12H25.876V14.52C27.052 14.6507 28.06 14.94 28.9 15.388C29.7587 15.836 30.5053 16.452 31.14 17.236L28.844 19.224C28.4707 18.776 28.0227 18.384 27.5 18.048C26.996 17.712 26.3707 17.4693 25.624 17.32V22.528C27.6213 22.9947 29.0867 23.648 30.02 24.488C30.9533 25.3093 31.42 26.448 31.42 27.904C31.42 29.3413 30.9533 30.5827 30.02 31.628C29.0867 32.6547 27.7053 33.2987 25.876 33.56V36.136H23.104ZM20.948 19.644C20.948 20.2973 21.1347 20.8013 21.508 21.156C21.9 21.5107 22.516 21.8 23.356 22.024V17.292C21.7507 17.572 20.948 18.356 20.948 19.644ZM28.06 28.156C28.06 27.596 27.8827 27.1107 27.528 26.7C27.192 26.2707 26.5573 25.9253 25.624 25.664V30.816C26.408 30.648 27.0053 30.3307 27.416 29.864C27.8453 29.3787 28.06 28.8093 28.06 28.156Z" fill="white"/>
</svg>
